<?xml version="1.0" encoding="UTF-8"?>
<!DOCTYPE svg PUBLIC "-//W3C//DTD SVG 1.1//EN" "http://www.w3.org/Graphics/SVG/1.1/DTD/svg11.dtd">
<!-- Creator: CorelDRAW 2019 (64-Bit) -->
<svg xmlns="http://www.w3.org/2000/svg" xml:space="preserve" width="50mm" height="53.988mm" version="1.1" style="shape-rendering:geometricPrecision; text-rendering:geometricPrecision; image-rendering:optimizeQuality; fill-rule:evenodd; clip-rule:evenodd"
viewBox="0 0 113.56 122.62"
 xmlns:xlink="http://www.w3.org/1999/xlink"
 xmlns:xodm="http://www.corel.com/coreldraw/odm/2003">
 <defs>
  <style type="text/css">
   <![CDATA[
    .fil0 {fill:#233F78}
   ]]>
  </style>
 </defs>
 <g id="Layer_x0020_1">
  <metadata id="CorelCorpID_0Corel-Layer"/>
  <path class="fil0" d="M107.77 122.62l-89.45 0c-3.18,0 -5.78,-2.59 -5.78,-5.78l0 -11.79 -8.15 0c-2.42,0 -4.39,-1.98 -4.39,-4.39l0 -96.27c0,-2.42 1.98,-4.39 4.39,-4.39l88.13 0c2.42,0 4.39,1.98 4.39,4.39l0 15.31 0.04 -6.58 10.84 0.05c3.17,0.01 5.76,2.59 5.76,5.78l0 97.89c-0.01,3.18 -2.61,5.78 -5.79,5.78zm-86.45 -17.57l0 8.78 83.44 0 0 -91.89 -7.85 -0.04 0 78.76c0,2.42 -1.98,4.39 -4.39,4.39l-71.2 0zm64.19 -19.39c0,2.42 -1.98,4.39 -4.39,4.39l-65.33 0c-2.42,0 -4.39,-1.98 -4.39,-4.39 0,-2.42 1.98,-4.39 4.39,-4.39l65.33 0c2.42,0 4.39,1.98 4.39,4.39zm0 -21.24c0,2.42 -1.98,4.39 -4.39,4.39l-65.33 0c-2.42,0 -4.39,-1.98 -4.39,-4.39 0,-2.42 1.98,-4.39 4.39,-4.39l65.33 0c2.42,0 4.39,1.98 4.39,4.39zm0 -21.26c0,2.42 -1.98,4.39 -4.39,4.39l-65.33 0c-2.42,0 -4.39,-1.98 -4.39,-4.39 0,-2.42 1.98,-4.39 4.39,-4.39l65.33 0c2.42,0 4.39,1.98 4.39,4.39zm0 -20.2c0,1.84 -1.5,3.33 -3.33,3.33l-36.16 0c-1.84,0 -3.33,-1.5 -3.33,-3.33l0 -2.1c0,-1.84 1.5,-3.33 3.33,-3.33l36.16 0c1.84,0 3.33,1.5 3.33,3.33l0 2.1z"/>
 </g>
</svg>
