<?xml version="1.0" encoding="UTF-8"?>
<!DOCTYPE svg PUBLIC "-//W3C//DTD SVG 1.1//EN" "http://www.w3.org/Graphics/SVG/1.1/DTD/svg11.dtd">
<!-- Creator: CorelDRAW 2019 (64-Bit) -->
<svg xmlns="http://www.w3.org/2000/svg" xml:space="preserve" width="50mm" height="50mm" version="1.1" style="shape-rendering:geometricPrecision; text-rendering:geometricPrecision; image-rendering:optimizeQuality; fill-rule:evenodd; clip-rule:evenodd"
viewBox="0 0 92.24 92.24"
 xmlns:xlink="http://www.w3.org/1999/xlink"
 xmlns:xodm="http://www.corel.com/coreldraw/odm/2003">
 <defs>
  <style type="text/css">
   <![CDATA[
    .fil0 {fill:#233F78}
   ]]>
  </style>
 </defs>
 <g id="Layer_x0020_1">
  <metadata id="CorelCorpID_0Corel-Layer"/>
  <path class="fil0" d="M8.72 49.19c-1.49,-21.75 14.7,-38.9 34.34,-40.46 21.57,-1.71 38.84,14.91 40.44,34.35 1.77,21.62 -15.01,38.91 -34.39,40.42 -21.52,1.68 -39.05,-14.84 -40.39,-34.31zm43.05 -16.05c-0.1,-0.05 -0.23,-0.24 -0.29,-0.15 -0.06,0.1 -0.22,-0.11 -0.31,-0.13 -2.14,-0.42 -14.75,-0.12 -15.74,0.11l-0.16 6c0.09,1.61 -0.17,0.8 0.44,1.58l4.47 0.3c1.32,2.07 0.9,22.46 0.78,27.22 -0.1,3.84 -2.03,3.49 -5.52,3.86l-0.22 6.86 21.75 0 -0.07 -7.23 -5.17 -0.31 0.02 -38.11zm-8.42 -19.4c-8.33,2.08 -5.73,15.41 4.09,12.83 8.05,-2.12 5.64,-15.26 -4.09,-12.83zm-43.35 28.18l0 8.36c1.67,3.88 1.04,16.02 13.45,28.5 2.99,3.01 7.48,6.29 12.27,8.64 8.64,4.24 13.38,3.58 16.19,4.81l8.36 0c3.42,-1.47 7.66,-0.46 16.18,-4.84 6.17,-3.18 10.79,-6.44 14.57,-11.29 4.41,-5.66 7,-9.36 9.28,-16.95 0.84,-2.81 0.89,-6.46 1.93,-8.87l0 -6.92c-0.95,-2.57 -0.4,-8.92 -4.43,-16.78 -2.65,-5.19 -5.38,-9.27 -8.65,-12.69 -12.1,-12.66 -24.97,-12.2 -28.88,-13.89l-6.94 0c-4.58,1.67 -16.04,0.25 -29.48,13.05 -12.56,11.97 -12.27,25.23 -13.86,28.88z"/>
 </g>
</svg>
