<?xml version="1.0" encoding="UTF-8"?>
<!DOCTYPE svg PUBLIC "-//W3C//DTD SVG 1.1//EN" "http://www.w3.org/Graphics/SVG/1.1/DTD/svg11.dtd">
<!-- Creator: CorelDRAW 2019 (64-Bit) -->
<svg xmlns="http://www.w3.org/2000/svg" xml:space="preserve" width="50mm" height="47.4655mm" version="1.1" style="shape-rendering:geometricPrecision; text-rendering:geometricPrecision; image-rendering:optimizeQuality; fill-rule:evenodd; clip-rule:evenodd"
viewBox="0 0 104.47 99.18"
 xmlns:xlink="http://www.w3.org/1999/xlink"
 xmlns:xodm="http://www.corel.com/coreldraw/odm/2003">
 <defs>
  <style type="text/css">
   <![CDATA[
    .fil0 {fill:#233F78}
   ]]>
  </style>
 </defs>
 <g id="Layer_x0020_1">
  <metadata id="CorelCorpID_0Corel-Layer"/>
  <path class="fil0" d="M-0 13.31l0 33.66 33.67 -0.07 -14.28 -14.08c1.57,-6.34 10.67,-14.69 17.18,-17.89 30.53,-15.05 59.8,10.5 57.34,37.73 -1.67,18.44 -15.85,33.22 -33.55,35.68 -14.05,1.95 -29.51,-4.61 -36.4,-14.59 -4.17,-6.04 -4.76,-8.65 -6.31,-11.04l-10.76 -0.04c1.51,6.38 5.99,14.81 10.08,18.96 1.05,1.06 1.49,1.82 2.63,2.94 1.04,1.02 1.95,1.69 2.93,2.64 9.13,8.83 25.41,13.21 38.48,11.65 10.26,-1.22 23.7,-7.67 30,-15.11 3.51,-4.14 6.15,-7.58 9.06,-13.71 4.25,-8.95 2.98,-12.67 4.39,-17.59l0 -6.78c-0.83,-2.43 -0.9,-5.86 -1.63,-8.55 -0.75,-2.76 -1.6,-5.07 -2.68,-7.54 -3.9,-8.89 -10.86,-16.81 -19.01,-21.91 -14.74,-9.24 -32.98,-10.2 -48.27,-2.51 -6.24,3.14 -7.41,4.17 -11.89,8.56 -3.01,2.95 -6.86,6.57 -8.62,11.21 -2.94,-1.24 -9.84,-9.4 -12.37,-11.63zm47.02 39.36l24.49 14.47c1.39,-1.36 3.37,-4.91 4.15,-6.68 -4.92,-2.67 -17.49,-10.84 -20.78,-12.32l0.02 -22.05 -7.91 0.04 0.03 26.54z"/>
 </g>
</svg>
