<?xml version="1.0" encoding="UTF-8"?>
<!DOCTYPE svg PUBLIC "-//W3C//DTD SVG 1.1//EN" "http://www.w3.org/Graphics/SVG/1.1/DTD/svg11.dtd">
<!-- Creator: CorelDRAW 2019 (64-Bit) -->
<svg xmlns="http://www.w3.org/2000/svg" xml:space="preserve" width="70mm" height="56.0516mm" version="1.1" style="shape-rendering:geometricPrecision; text-rendering:geometricPrecision; image-rendering:optimizeQuality; fill-rule:evenodd; clip-rule:evenodd"
viewBox="0 0 270.04 216.23"
 xmlns:xlink="http://www.w3.org/1999/xlink"
 xmlns:xodm="http://www.corel.com/coreldraw/odm/2003">
 <defs>
  <style type="text/css">
   <![CDATA[
    .fil0 {fill:#233F78}
   ]]>
  </style>
 </defs>
 <g id="Layer_x0020_1">
  <metadata id="CorelCorpID_0Corel-Layer"/>
  <path class="fil0" d="M20.21 197.26c-4.92,-7.27 -2.36,-33.48 -2.36,-45.2l0 -94.95c0,-27.17 -3.99,-38.73 8.09,-38.73l218.27 0c6.25,0 7.55,1.86 7.55,7.9 0.01,27.62 1.54,153.78 -0.77,170.88l-230.79 0.1zm39.18 -160.34c-36.02,5.33 -27.51,58.24 7.93,52.74 34.53,-5.36 26.67,-57.86 -7.93,-52.74zm-23.51 142.06l197.37 0.21 -0.32 -62.67 -1.19 -1.32 -1.23 -1.23 -1.23 -1.23 -1.27 -1.21 -1.26 -1.19 -1.23 -1.23 -1.23 -1.23 -1.23 -1.23 -1.23 -1.23 -1.23 -1.23 -1.23 -1.23 -1.23 -1.23 -1.28 -1.21 -1.26 -1.19 -1.23 -1.23 -1.23 -1.23 -1.23 -1.23 -1.23 -1.23 -1.23 -1.23 -1.26 -1.22 -1.25 -1.21 -1.23 -1.23 -1.23 -1.23 -1.23 -1.23 -1.23 -1.23 -1.23 -1.23 -1.23 -1.23 -1.23 -1.23 -1.23 -1.23 -1.28 -1.21 -1.26 -1.18 -1.23 -1.23 -1.23 -1.23 -1.23 -1.23 -1.23 -1.23 -1.23 -1.23 -1.23 -1.23 -1.27 -1.21 -1.26 -1.19 -1.23 -1.23 -1.23 -1.23 -1.23 -1.23 -1.23 -1.23 -1.23 -1.23 -1.23 -1.23 -1.23 -1.23 -0.34 -0.25c-7.91,4.33 -57.99,58.08 -71.96,70.23 -4.69,-2.14 -18.91,-17.69 -23.06,-21.48 -0.95,4.07 -38.15,37.15 -42.75,43.04 -4.15,5.31 -1.6,19.6 -1.95,27.41zm-16.31 -177.99c-20.3,2.81 -19.52,20.19 -19.52,41.32l0 120.85c0,63.52 -6.68,52.31 129.48,52.31 18.21,0 112.66,1.19 122.03,-0.41 19.41,-3.32 18.04,-22.18 18.04,-42.03l0 -120.85c0,-20.42 3.85,-40.36 -11.25,-48.65 -10.08,-5.53 -147.75,-2.86 -178.14,-2.86 -16.38,0 -46.04,-1.7 -60.63,0.32z"/>
 </g>
</svg>
