<?xml version="1.0" encoding="UTF-8"?>
<!DOCTYPE svg PUBLIC "-//W3C//DTD SVG 1.1//EN" "http://www.w3.org/Graphics/SVG/1.1/DTD/svg11.dtd">
<!-- Creator: CorelDRAW 2019 (64-Bit) -->
<svg xmlns="http://www.w3.org/2000/svg" xml:space="preserve" width="50.1816mm" height="56.366mm" version="1.1" style="shape-rendering:geometricPrecision; text-rendering:geometricPrecision; image-rendering:optimizeQuality; fill-rule:evenodd; clip-rule:evenodd"
viewBox="0 0 124.15 139.45"
 xmlns:xlink="http://www.w3.org/1999/xlink"
 xmlns:xodm="http://www.corel.com/coreldraw/odm/2003">
 <defs>
  <style type="text/css">
   <![CDATA[
    .fil0 {fill:#F26965}
   ]]>
  </style>
 </defs>
 <g id="Layer_x0020_1">
  <metadata id="CorelCorpID_0Corel-Layer"/>
  <path class="fil0" d="M1.2 132.15c-0.08,7.73 9.31,9.04 15.45,5.23 5.34,-3.31 10.65,-5.95 15.8,-9.08 25.14,-15.29 54.24,-30.64 79.3,-45.77 5.53,-3.34 12.3,-4.98 12.4,-12.66 0.1,-7.77 -7.33,-9.36 -12.9,-12.85l-95.05 -54.83c-9.3,-5.71 -15.04,1.07 -15.11,5.35 -0.09,0.16 -0.19,0.24 -0.22,0.52 -2.07,22.25 0.31,68.04 -0.41,92.91l-0.17 27.68c0.05,0.94 0.01,1 0.24,1.91 0.36,1.43 0.1,0.77 0.68,1.58z"/>
 </g>
</svg>
