<?xml version="1.0" encoding="UTF-8"?>
<!DOCTYPE svg PUBLIC "-//W3C//DTD SVG 1.1//EN" "http://www.w3.org/Graphics/SVG/1.1/DTD/svg11.dtd">
<!-- Creator: CorelDRAW 2019 (64-Bit) -->
<svg xmlns="http://www.w3.org/2000/svg" xml:space="preserve" width="52.7839mm" height="52.9184mm" version="1.1" style="shape-rendering:geometricPrecision; text-rendering:geometricPrecision; image-rendering:optimizeQuality; fill-rule:evenodd; clip-rule:evenodd"
viewBox="0 0 108.41 108.69"
 xmlns:xlink="http://www.w3.org/1999/xlink"
 xmlns:xodm="http://www.corel.com/coreldraw/odm/2003">
 <defs>
  <style type="text/css">
   <![CDATA[
    .fil0 {fill:#FEFEFE}
   ]]>
  </style>
 </defs>
 <g id="Layer_x0020_1">
  <metadata id="CorelCorpID_0Corel-Layer"/>
  <path class="fil0" d="M13 96.1c0.83,-5.54 5.03,-13.44 2.98,-18.27 -3.03,-7.13 -4.79,-8.3 -6.19,-17.34 -2.32,-15.02 3.38,-26.91 10.02,-35.73 16.2,-21.53 59.62,-23.67 75.65,10.75 14.64,31.44 -11.44,67.57 -45.86,63.36 -9.23,-1.13 -10.32,-2.96 -17.76,-5.75 -5.31,-2 -13.38,2.12 -18.84,2.99zm27.38 -65.33c0.4,-1.79 0.93,-1.64 -0.72,-1.23l-6.6 0.66 -1.25 0.71 -1.25 0.85c-12.35,18.58 15.59,43.75 33.71,47.7 9.83,2.14 18.17,-2.98 17.19,-12.47 -3.74,-2.52 -9.07,-5.53 -13.56,-6.13 -2.2,2.31 -3.89,5.2 -6.86,6.82 -7.61,-1.73 -18.55,-11.56 -20.05,-18.33 6.73,-11.19 4.08,-3.63 0.58,-16.83l-1.18 -1.74 -0.72 -1.23c-2.38,-1.26 -4.48,-2.27 -6.6,0.66zm-32.87 78.5c20.39,-3 23.07,-9.7 32.97,-5.02 3.97,1.88 6.79,2.59 11.28,3.47 24.68,4.89 45.86,-7.61 57.32,-26.86 12.66,-21.27 5.92,-49.48 -9.12,-64.52 -15,-15 -42.62,-21.58 -63.9,-9.47 -24.39,13.87 -35.32,43.18 -24.66,67.61 2.22,5.08 3.9,5.04 2.48,11.08 -1.81,7.72 -5.12,16.03 -6.38,23.71z"/>
 </g>
</svg>
